<svg aria-hidden="true" style="position: absolute; width: 0; height: 0; overflow: hidden;" version="1.1" xmlns="http://www.w3.org/2000/svg" xmlns:xlink="http://www.w3.org/1999/xlink">
<defs>
<symbol id="icon-alarm" viewBox="0 0 32 30.5">
<title>home2</title>
<path d="M30.74 9.5a15.723 15.723 0 0 0-8.243-8.243A5.869 5.869 0 0 1 30.74 9.5zM30.5 16a14.433 14.433 0 0 1-3.963 9.94l2.029 2.028a1.485 1.485 0 1 1-2.1 2.1l-2.178-2.178a14.457 14.457 0 0 1-16.566.01l-2.163 2.163a1.5 1.5 0 0 1-2.122-2.121l2.012-2.012A14.494 14.494 0 1 1 30.5 16zM16 4.5A11.5 11.5 0 1 0 27.5 16 11.5 11.5 0 0 0 16 4.5zm6 13h-6a1.5 1.5 0 0 1-1.5-1.5V8a1.5 1.5 0 0 1 3 0v6.5H22a1.5 1.5 0 0 1 0 3zM1.287 9.7a5.994 5.994 0 0 1 8.419-8.418 16.057 16.057 0 0 0-8.419 8.423z"></path>
</symbol>
<symbol id="icon-photo" viewBox="0 0 32 32">
<title>home</title>
<path d="M30.5 32h-29A1.5 1.5 0 0 1 0 30.5v-29A1.5 1.5 0 0 1 1.5 0h29A1.5 1.5 0 0 1 32 1.5v29a1.5 1.5 0 0 1-1.5 1.5zM29 3H3v26h26V3zM5.215 16.238l4-2.5a1.5 1.5 0 0 1 1.625.035l.006-.008 6.631 4.42 7.638-5.392a1.5 1.5 0 1 1 1.763 2.426l-8.5 6a1.5 1.5 0 0 1-1.739.012l-6.657-4.438-3.135 1.96a1.5 1.5 0 1 1-1.632-2.515z"></path>
</symbol>
<symbol id="icon-display" viewBox="0 0 31 28">
<title>home2</title>
<path d="M29.5 23H20v2.5l2 2v.5H9v-.5l2-2V23H1.5A1.5 1.5 0 0 1 0 21.5v-20A1.5 1.5 0 0 1 1.5 0h28A1.5 1.5 0 0 1 31 1.5v20a1.5 1.5 0 0 1-1.5 1.5zM29 2H2v17h27V2zM12.5 9a1.5 1.5 0 0 1 1.06.439l.94.939 2.94-2.939a1.5 1.5 0 1 1 2.12 2.121l-4 4a1.5 1.5 0 0 1-2.12 0l-2-2A1.5 1.5 0 0 1 12.5 9z"></path>
</symbol>
<symbol id="icon-book" viewBox="0 0 32 32">
<title>home2</title>
<path d="M31.065 25.889l-14.471 5.988a1.5 1.5 0 0 1-1.188 0L.935 25.889A1.5 1.5 0 0 1 0 24.5v-23A1.5 1.5 0 0 1 2.073.114h.013L16 5.876 29.911.12h.013A1.5 1.5 0 0 1 32 1.5v23a1.5 1.5 0 0 1-.935 1.389zM14.5 8.5L3 3.744V23.5l11.5 4.759V8.5zM29 3.742L17.5 8.5v19.754L29 23.5V3.744zm-9.121 6.89l5.5-2.5a1.5 1.5 0 0 1 1.242 2.731l-5.5 2.5a1.5 1.5 0 0 1-1.242-2.729zm0 5.5l5.5-2.5a1.5 1.5 0 0 1 1.242 2.731l-5.5 2.5a1.5 1.5 0 0 1-1.242-2.729zm0 5.5l5.5-2.5a1.5 1.5 0 0 1 1.242 2.731l-5.5 2.5a1.5 1.5 0 0 1-1.242-2.729zM6 8a1.5 1.5 0 0 1 .621.134l5.5 2.5A1.5 1.5 0 0 1 11.5 13.5a1.48 1.48 0 0 1-.621-.135l-5.5-2.5A1.5 1.5 0 0 1 6 8zm0 5.5a1.5 1.5 0 0 1 .621.134l5.5 2.5a1.5 1.5 0 1 1-1.242 2.731l-5.5-2.5A1.5 1.5 0 0 1 6 13.5zM6 19a1.5 1.5 0 0 1 .621.134l5.5 2.5A1.5 1.5 0 0 1 11.5 24.5a1.48 1.48 0 0 1-.621-.135l-5.5-2.5A1.5 1.5 0 0 1 6 19z"></path>
</symbol>
<symbol id="icon-home" viewBox="0 0 32 30.5">
<title>home2</title>
<path d="M32 16a1.5 1.5 0 0 1-2.52 1.094L16.041 3.655 16 3.622 2.554 17.068a1.5 1.5 0 1 1-2.092-2.149L14.92.46A1.5 1.5 0 0 1 16 0h.091l.068.006a1.5 1.5 0 0 1 .933.468l5.9 5.9V5a1.5 1.5 0 1 1 3 0v4.378l5.6 5.6A1.489 1.489 0 0 1 32 16zm-3 2.5V29a1.5 1.5 0 0 1-1.5 1.5h-3v-12h-6v12h-14A1.5 1.5 0 0 1 3 29V18.5l13-13zm-15.5 0h-6v6h6v-6z"></path>
</symbol>
<symbol id="icon-square" viewBox="0 0 32 32">
<title>home2</title>
<path d="M30.5 32h-29A1.5 1.5 0 0 1 0 30.5v-29A1.5 1.5 0 0 1 1.5 0h29A1.5 1.5 0 0 1 32 1.5v29a1.5 1.5 0 0 1-1.5 1.5zM29 3H3v26h26V3zM6.5 4.5H12a1.5 1.5 0 1 1 0 3H7.5V12a1.5 1.5 0 1 1-3 0V4.5h2zM4.5 20a1.5 1.5 0 1 1 3 0v4.5H12a1.5 1.5 0 0 1 0 3H4.5V20zM20 4.5h7.5V12a1.5 1.5 0 1 1-3 0V7.5H20a1.5 1.5 0 1 1 0-3zm0 20h4.5V20a1.5 1.5 0 1 1 3 0v7.5H20a1.5 1.5 0 0 1 0-3z"></path>
</symbol>
</defs>
</svg>
